<svg width="35" height="35" viewBox="0 0 35 35" fill="none" xmlns="http://www.w3.org/2000/svg">
<g clip-path="url(#clip0_3_26)">
<path d="M9.21154 28.3092H1.63696C1.23008 28.3092 1.09373 28.3092 1.09373 27.572V25.8183C1.09373 25.6733 1.03611 25.5342 0.933551 25.4316C0.830992 25.3291 0.691892 25.2715 0.546852 25.2715C0.401812 25.2715 0.262712 25.3291 0.160153 25.4316C0.0575941 25.5342 -2.29664e-05 25.6733 -2.29664e-05 25.8183V27.572C-0.0412427 27.8049 -0.029032 28.0441 0.035688 28.2716C0.100408 28.4991 0.215947 28.7089 0.373588 28.8852C0.531228 29.0615 0.726854 29.1997 0.945705 29.2894C1.16456 29.3791 1.40092 29.4179 1.63696 29.4029H9.21154C9.35658 29.4029 9.49568 29.3453 9.59824 29.2427C9.7008 29.1402 9.75842 29.0011 9.75842 28.856C9.75842 28.711 9.7008 28.5719 9.59824 28.4693C9.49568 28.3668 9.35658 28.3092 9.21154 28.3092ZM0.546852 24.0968C0.691892 24.0968 0.830992 24.0392 0.933551 23.9366C1.03611 23.834 1.09373 23.6949 1.09373 23.5499V5.4724L17.6458 5.50084V14.6191C17.6458 14.7641 17.7034 14.9032 17.806 15.0058C17.9085 15.1083 18.0476 15.1659 18.1927 15.1659C18.3377 15.1659 18.4768 15.1083 18.5794 15.0058C18.6819 14.9032 18.7396 14.7641 18.7396 14.6191V5.50084C18.7423 5.20508 18.6274 4.92034 18.4203 4.70922C18.2131 4.49811 17.9306 4.37789 17.6349 4.375H1.55748L4.05852 2.26042H19.9544C20.1864 2.26042 20.409 2.35261 20.5731 2.5167C20.7372 2.6808 20.8294 2.90336 20.8294 3.13542V14.2333C20.8294 14.3784 20.887 14.5175 20.9895 14.62C21.0921 14.7226 21.2312 14.7802 21.3762 14.7802C21.5213 14.7802 21.6604 14.7226 21.7629 14.62C21.8655 14.5175 21.9231 14.3784 21.9231 14.2333V3.13542C21.9231 2.61328 21.7157 2.11252 21.3465 1.74331C20.9773 1.37409 20.4765 1.16667 19.9544 1.16667H3.85873C3.72953 1.16659 3.60448 1.21232 3.50581 1.29573L0.257373 4.04761C0.180577 4.12637 0.120549 4.21989 0.0809145 4.3225C0.0301464 4.40405 0.00219492 4.49772 -2.29664e-05 4.59375V23.5521C0.000555681 23.6967 0.058428 23.8353 0.160924 23.9374C0.263421 24.0395 0.40219 24.0968 0.546852 24.0968Z" fill="#4F4F4F"/>
<path d="M19.791 14.4236C19.9361 14.4236 20.0752 14.366 20.1777 14.2635C20.2803 14.1609 20.3379 14.0218 20.3379 13.8768V4.40417C20.3373 3.97341 20.1662 3.56041 19.8618 3.25554C19.5575 2.95067 19.1448 2.77875 18.7141 2.7774L5.04511 2.74896C4.90006 2.74896 4.76096 2.80658 4.65841 2.90914C4.55585 3.0117 4.49823 3.1508 4.49823 3.29584C4.49823 3.44088 4.55585 3.57998 4.65841 3.68254C4.76096 3.7851 4.90006 3.84271 5.04511 3.84271L18.7148 3.87115C18.856 3.87154 18.9913 3.92784 19.091 4.02774C19.1908 4.12764 19.2469 4.26299 19.2471 4.40417V13.8768C19.2471 14.0213 19.3043 14.16 19.4062 14.2624C19.5082 14.3649 19.6465 14.4229 19.791 14.4236ZM27.3233 24.8347C27.1783 24.8347 27.0392 24.8923 26.9366 24.9949C26.8341 25.0974 26.7765 25.2365 26.7765 25.3816V29.9286C26.7775 30.0354 26.7525 30.1408 26.7035 30.2356C26.3958 30.8226 24.9375 32.7396 19.1042 32.7396C13.2708 32.7396 11.8125 30.8248 11.5011 30.2371C11.4524 30.1424 11.4273 30.0373 11.4282 29.9308V25.6134C11.4282 25.4684 11.3706 25.3293 11.2681 25.2267C11.1655 25.1242 11.0264 25.0666 10.8814 25.0666C10.7363 25.0666 10.5972 25.1242 10.4947 25.2267C10.3921 25.3293 10.3345 25.4684 10.3345 25.6134V29.9286C10.333 30.2124 10.4 30.4923 10.5299 30.7446C11.0214 31.6728 12.8333 33.8333 19.1042 33.8333C25.375 33.8333 27.1863 31.675 27.6741 30.7475C27.805 30.4953 27.8726 30.215 27.8709 29.9308V25.3816C27.8709 25.3097 27.8568 25.2385 27.8292 25.1721C27.8017 25.1057 27.7614 25.0454 27.7105 24.9946C27.6596 24.9438 27.5993 24.9035 27.5328 24.8761C27.4664 24.8487 27.3952 24.8346 27.3233 24.8347Z" fill="#4F4F4F"/>
<path d="M34.6259 20.1534L20.1578 15.3205C20.0473 15.2833 19.9277 15.2833 19.8173 15.3205L3.51966 20.5457C3.41084 20.5815 3.31599 20.6506 3.24847 20.7431C3.18095 20.8357 3.14415 20.9471 3.14327 21.0616C3.14238 21.1762 3.17745 21.2882 3.24353 21.3817C3.30961 21.4753 3.40338 21.5458 3.51164 21.5833L18.7512 26.7342C18.8076 26.7532 18.8667 26.7631 18.9262 26.7633C18.9889 26.7632 19.051 26.7524 19.11 26.7312L30.2961 22.7369V25.3619C29.919 25.4757 29.5885 25.7076 29.3531 26.0235C29.1178 26.3393 28.99 26.7224 28.9887 27.1162V28.2187C28.9887 28.7076 29.1829 29.1765 29.5286 29.5222C29.8743 29.8679 30.3432 30.0621 30.8321 30.0621C31.3209 30.0621 31.7898 29.8679 32.1355 29.5222C32.4812 29.1765 32.6754 28.7076 32.6754 28.2187V27.1148C32.6744 26.7245 32.5493 26.3446 32.3182 26.03C32.0871 25.7154 31.762 25.4825 31.3899 25.3648V22.346L34.6354 21.1874C34.7426 21.1492 34.8352 21.0784 34.9003 20.9851C34.9654 20.8917 34.9997 20.7803 34.9985 20.6665C34.9973 20.5527 34.9606 20.4421 34.8936 20.3501C34.8265 20.2582 34.7324 20.1894 34.6245 20.1534H34.6259ZM31.5787 28.2187C31.5787 28.4176 31.4998 28.6082 31.3592 28.7488C31.2186 28.8894 31.0279 28.9683 30.8291 28.9683C30.6303 28.9683 30.4397 28.8894 30.2991 28.7488C30.1585 28.6082 30.0796 28.4176 30.0796 28.2187V27.1148C30.0796 27.0164 30.0989 26.9189 30.1366 26.8279C30.1743 26.737 30.2295 26.6544 30.2991 26.5848C30.3687 26.5151 30.4513 26.4599 30.5423 26.4223C30.6332 26.3846 30.7307 26.3652 30.8291 26.3652C30.9276 26.3652 31.0251 26.3846 31.116 26.4223C31.2069 26.4599 31.2896 26.5151 31.3592 26.5848C31.4288 26.6544 31.484 26.737 31.5217 26.8279C31.5593 26.9189 31.5787 27.0164 31.5787 27.1148V28.2187ZM30.765 21.4083L19.1617 20.1564C19.0894 20.1468 19.016 20.1518 18.9456 20.1711C18.8753 20.1904 18.8095 20.2236 18.7522 20.2687C18.6949 20.3137 18.6471 20.3698 18.6118 20.4336C18.5765 20.4974 18.5543 20.5677 18.5465 20.6402C18.5387 20.7127 18.5455 20.786 18.5665 20.8559C18.5875 20.9257 18.6222 20.9907 18.6687 21.0469C18.7151 21.1031 18.7724 21.1495 18.837 21.1832C18.9017 21.217 18.9724 21.2375 19.0451 21.2435L28.3996 22.2527L18.9204 25.639L5.43518 21.0802L19.9806 16.4135L32.7782 20.6886L30.765 21.4083Z" fill="#4F4F4F"/>
</g>
<defs>
<clipPath id="clip0_3_26">
<rect width="35" height="35" fill="white"/>
</clipPath>
</defs>
</svg>
