<svg width="18" height="21" viewBox="0 0 18 21" fill="none" xmlns="http://www.w3.org/2000/svg">
<path fill-rule="evenodd" clip-rule="evenodd" d="M3.37672 0C3.07845 0 2.79238 0.11849 2.58147 0.329404C2.37056 0.540318 2.25207 0.826378 2.25207 1.12466V2.4405C1.59354 2.67286 1.02331 3.10376 0.619955 3.6738C0.216604 4.24384 0 4.92496 0 5.62328C0 6.32159 0.216604 7.00271 0.619955 7.57276C1.02331 8.1428 1.59354 8.5737 2.25207 8.80605V19.1191C2.25207 19.4174 2.37056 19.7035 2.58147 19.9144C2.79238 20.1253 3.07845 20.2438 3.37672 20.2438C3.675 20.2438 3.96106 20.1253 4.17197 19.9144C4.38289 19.7035 4.50138 19.4174 4.50138 19.1191V8.80605C5.1599 8.5737 5.73014 8.1428 6.13349 7.57276C6.53684 7.00271 6.75345 6.32159 6.75345 5.62328C6.75345 4.92496 6.53684 4.24384 6.13349 3.6738C5.73014 3.10376 5.1599 2.67286 4.50138 2.4405V1.12466C4.50138 0.826378 4.38289 0.540318 4.17197 0.329404C3.96106 0.11849 3.675 0 3.37672 0ZM4.50138 5.62328C4.50138 5.92155 4.38289 6.20761 4.17197 6.41853C3.96106 6.62944 3.675 6.74793 3.37672 6.74793C3.07845 6.74793 2.79238 6.62944 2.58147 6.41853C2.37056 6.20761 2.25207 5.92155 2.25207 5.62328C2.25207 5.325 2.37056 5.03894 2.58147 4.82803C2.79238 4.61711 3.07845 4.49862 3.37672 4.49862C3.675 4.49862 3.96106 4.61711 4.17197 4.82803C4.38289 5.03894 4.50138 5.325 4.50138 5.62328ZM14.6233 0C14.325 0 14.0389 0.11849 13.828 0.329404C13.6171 0.540318 13.4986 0.826378 13.4986 1.12466V10.3131C12.8401 10.5454 12.2699 10.9763 11.8665 11.5464C11.4632 12.1164 11.2466 12.7976 11.2466 13.4959C11.2466 14.1942 11.4632 14.8753 11.8665 15.4453C12.2699 16.0154 12.8401 16.4463 13.4986 16.6786V19.1191C13.4986 19.4174 13.6171 19.7035 13.828 19.9144C14.0389 20.1253 14.325 20.2438 14.6233 20.2438C14.9216 20.2438 15.2076 20.1253 15.4185 19.9144C15.6294 19.7035 15.7479 19.4174 15.7479 19.1191V16.6786C16.4065 16.4463 16.9767 16.0154 17.38 15.4453C17.7834 14.8753 18 14.1942 18 13.4959C18 12.7976 17.7834 12.1164 17.38 11.5464C16.9767 10.9763 16.4065 10.5454 15.7479 10.3131V1.12466C15.7479 0.826378 15.6294 0.540318 15.4185 0.329404C15.2076 0.11849 14.9216 0 14.6233 0ZM15.7479 13.4959C15.7479 13.7941 15.6294 14.0802 15.4185 14.2911C15.2076 14.502 14.9216 14.6205 14.6233 14.6205C14.325 14.6205 14.0389 14.502 13.828 14.2911C13.6171 14.0802 13.4986 13.7941 13.4986 13.4959C13.4986 13.1976 13.6171 12.9115 13.828 12.7006C14.0389 12.4897 14.325 12.3712 14.6233 12.3712C14.9216 12.3712 15.2076 12.4897 15.4185 12.7006C15.6294 12.9115 15.7479 13.1976 15.7479 13.4959Z" fill="#4F4F4F"/>
</svg>
