<svg width="30" height="30" viewBox="0 0 30 30" fill="none" xmlns="http://www.w3.org/2000/svg">
<g clip-path="url(#clip0_3_23)">
<path d="M26.5734 3.70594C24.9403 1.92 22.7625 0.9375 20.4403 0.9375C18.4331 0.9375 16.5328 1.6725 15 3.02531C13.4672 1.6725 11.5669 0.9375 9.55969 0.9375C7.2375 0.9375 5.05969 1.92 3.42656 3.70594C0.107813 7.33406 0.107813 13.2366 3.42656 16.8647L14.3072 28.7588C14.4853 28.9519 14.7366 29.0625 15 29.0625C15.2634 29.0625 15.5147 28.9519 15.6928 28.7578L26.5734 16.8638C29.8922 13.2366 29.8922 7.33406 26.5734 3.70594ZM25.1878 15.5991L15 26.7356L4.81125 15.5991C2.13094 12.6694 2.13094 7.90125 4.81125 4.97156C6.08531 3.57844 7.77094 2.8125 9.55969 2.8125C11.3484 2.8125 13.0341 3.57844 14.3072 4.97062C14.6625 5.35875 15.3366 5.35875 15.6928 4.97062C16.9659 3.57844 18.6516 2.8125 20.4403 2.8125C22.2291 2.8125 23.9156 3.57844 25.1887 4.97062C27.8691 7.90125 27.8691 12.6694 25.1878 15.5991Z" fill="#4F4F4F"/>
<path d="M22.5 12.1875H20.1562L17.625 8.8125C17.43 8.55281 17.1178 8.41312 16.7906 8.44125C16.4672 8.47031 16.1822 8.66531 16.0359 8.95594L12.9647 15.0994L11.0625 12.5625C10.8853 12.3262 10.6078 12.1875 10.3125 12.1875H7.5C6.9825 12.1875 6.5625 12.6075 6.5625 13.125C6.5625 13.6425 6.9825 14.0625 7.5 14.0625H9.84375L12.375 17.4375C12.5531 17.6747 12.8316 17.8125 13.125 17.8125C13.1531 17.8125 13.1813 17.8116 13.2094 17.8087C13.5328 17.7797 13.8178 17.5847 13.9641 17.2941L17.0353 11.1506L18.9375 13.6875C19.1138 13.9237 19.3922 14.0625 19.6875 14.0625H22.5C23.0175 14.0625 23.4375 13.6425 23.4375 13.125C23.4375 12.6075 23.0175 12.1875 22.5 12.1875Z" fill="#4F4F4F"/>
</g>
<defs>
<clipPath id="clip0_3_23">
<rect width="30" height="30" fill="white"/>
</clipPath>
</defs>
</svg>
