<svg width="18" height="18" viewBox="0 0 18 18" fill="none" xmlns="http://www.w3.org/2000/svg">
<path d="M18 13.5C18 14.0304 17.7893 14.5391 17.4142 14.9142C17.0391 15.2893 16.5304 15.5 16 15.5H2C1.46957 15.5 0.960859 15.2893 0.585786 14.9142C0.210714 14.5391 0 14.0304 0 13.5V4.5C0 3.96957 0.210714 3.46086 0.585786 3.08579C0.960859 2.71071 1.46957 2.5 2 2.5H16C16.5304 2.5 17.0391 2.71071 17.4142 3.08579C17.7893 3.46086 18 3.96957 18 4.5V13.5Z" fill="#006600"/>
<path d="M16 2.5H7.5V15.5H16C16.5304 15.5 17.0391 15.2893 17.4142 14.9142C17.7893 14.5391 18 14.0304 18 13.5V4.5C18 3.96957 17.7893 3.46086 17.4142 3.08579C17.0391 2.71071 16.5304 2.5 16 2.5Z" fill="#D52B1E"/>
<path d="M7.5 5C6.43913 5 5.42172 5.42143 4.67157 6.17157C3.92143 6.92172 3.5 7.93913 3.5 9C3.5 10.0609 3.92143 11.0783 4.67157 11.8284C5.42172 12.5786 6.43913 13 7.5 13C8.56087 13 9.57828 12.5786 10.3284 11.8284C11.0786 11.0783 11.5 10.0609 11.5 9C11.5 7.93913 11.0786 6.92172 10.3284 6.17157C9.57828 5.42143 8.56087 5 7.5 5ZM4.4435 7.297L5.2445 8.098L4.0145 8.713C4.05419 8.21568 4.20051 7.73273 4.4435 7.297ZM4.0145 9.2865L6.2145 10.39L4.8615 11.292L4.8685 11.3025C4.37435 10.7399 4.07485 10.0329 4.0145 9.2865ZM7 12.46C6.54167 12.3945 6.10104 12.2381 5.704 12H7V12.46ZM7 11.5H5.4505L7 10.467V11.5ZM7 9.866L6.6965 10.0685L4.559 9L5.617 8.471L7 9.8535V9.866ZM7 9.1465L5.2285 7.375L7 7.67V9.1465ZM7 7.1505L4.784 6.794C5.33839 6.11185 6.12977 5.66401 7 5.54V7.1505ZM10.5565 7.297C10.7996 7.73288 10.9459 8.21601 10.9855 8.7135L9.7555 8.0985L10.5565 7.297ZM8 5.54C8.86991 5.66496 9.66097 6.11261 10.216 6.794L8 7.1505V5.54ZM8 7.67L9.7715 7.3745L8 9.1465V7.67ZM8 9.8535L9.3825 8.471L10.441 9L8.304 10.0685L8 9.866V9.8535ZM8 12.46V12H9.296C8.89896 12.2381 8.45833 12.3945 8 12.46ZM8 11.5V10.467L9.5495 11.5H8ZM10.132 11.3025L10.139 11.292L8.786 10.39L10.986 9.2865C10.9249 10.0327 10.6255 10.7395 10.132 11.3025Z" fill="#FFCC4D"/>
<path d="M5.5 6.5V10C5.5 10.5304 5.71071 11.0391 6.08579 11.4142C6.46086 11.7893 6.96957 12 7.5 12C8.03043 12 8.53914 11.7893 8.91421 11.4142C9.28929 11.0391 9.5 10.5304 9.5 10V6.5H5.5Z" fill="#D52B1E"/>
<path d="M6 7V10C6 10.3978 6.15804 10.7794 6.43934 11.0607C6.72064 11.342 7.10218 11.5 7.5 11.5C7.89782 11.5 8.27936 11.342 8.56066 11.0607C8.84196 10.7794 9 10.3978 9 10V7H6Z" fill="white"/>
<path d="M6.5 8.5H8.5V9.5H6.5V8.5Z" fill="#829ACD"/>
<path d="M7 8H8V10H7V8Z" fill="#829ACD"/>
<path d="M6 8.5H6.5V9.5H6V8.5ZM7 8.5H8V9.5H7V8.5ZM8.5 8.5H9V9.5H8.5V8.5ZM7 10H8V11H7V10ZM7 7H8V8H7V7Z" fill="#003399"/>
</svg>
